<svg xmlns="http://www.w3.org/2000/svg" viewBox="0 0 512 512">
  <rect width="512" height="512" rx="102" fill="#2563eb"/>
  <path d="M256 120c-75 0-136 61-136 136v16c0 75 61 136 136 136s136-61 136-136v-16c0-75-61-136-136-136zm0 40c53 0 96 43 96 96v16c0 53-43 96-96 96s-96-43-96-96v-16c0-53 43-96 96-96z" fill="#ffffff"/>
  <path d="M256 200c-31 0-56 25-56 56v16c0 31 25 56 56 56s56-25 56-56v-16c0-31-25-56-56-56zm0 40c9 0 16 7 16 16v16c0 9-7 16-16 16s-16-7-16-16v-16c0-9 7-16 16-16z" fill="#ffffff"/>
  <path d="M256 280l-40 80h80z" fill="#ffffff"/>
</svg>
